# xmcd CD database file
#
# Track frame offsets:
#	150
#	11337
#	30497
#	48720
#	69180
#	80192
#	97587
#	116292
#	135065
#	156557
#	170320
#	189940
#	203807
#	218940
#	237310
#	252370
#
# Disc length: 3646 seconds
#
# Revision: 3
# Processed by: cddbd v1.5.1PL0 Copyright (c) Steve Scherf et al.
# Submitted via: CDex 1.51
#
DISCID=c80e3c10
DTITLE=Champion Jack Dupree - Champion Jack Dupree of New Orleans
DYEAR=1991
DGENRE=Blues
TTITLE0=Shake Baby, Shake
TTITLE1=Everyday I Had The Blues
TTITLE2=Three O´Clock In The Morning
TTITLE3=Oh Lawdy
TTITLE4=Whiskey Head Woman
TTITLE5=Young Girl Blues
TTITLE6=Fine And Mellow
TTITLE7=Holiday Blues
TTITLE8=People Talk
TTITLE9=Shirley May
TTITLE10=Federal Man Blues
TTITLE11=Champion Jack´s Guitar Blues
TTITLE12=Sporting Life Blues
TTITLE13=Don´t Ever Believe
TTITLE14=Christina, Christina Blues
TTITLE15=Hand In Hand
EXTD=Storyville STCD 8015 YEAR: 1991
EXTT0=
EXTT1=
EXTT2=
EXTT3=
EXTT4=
EXTT5=
EXTT6=
EXTT7=
EXTT8=
EXTT9=
EXTT10=
EXTT11=
EXTT12=
EXTT13=
EXTT14=
EXTT15=
PLAYORDER=
